<svg version="1.1" id="Layer_1" xmlns="http://www.w3.org/2000/svg" xmlns:xlink="http://www.w3.org/1999/xlink" x="0px" y="0px"
	 width="100%" viewBox="0 0 544 544" enable-background="new 0 0 544 544" xml:space="preserve">
<path fill="#000000" opacity="1.000000" stroke="none" 
	d="
M189.526062,300.700165 
	C195.422485,281.138977 201.807739,272.751312 228.135132,250.141174 
	C220.544876,250.141174 213.843170,250.148956 207.141479,250.139328 
	C197.339020,250.125229 195.951523,248.733704 195.916901,238.828583 
	C195.888351,230.666245 195.812912,222.502792 195.918793,214.341904 
	C195.961945,211.017258 194.729675,209.081497 191.298645,209.484543 
	C186.874725,210.004227 185.921768,207.835175 185.932709,203.947021 
	C185.945160,199.512253 188.318420,198.826233 192.014511,198.832138 
	C230.661011,198.893906 269.307678,198.861542 307.954285,198.860077 
	C322.613342,198.859512 337.272644,198.826477 351.931335,198.902451 
	C356.976562,198.928589 358.313599,200.503464 358.000854,205.161331 
	C357.814392,207.938553 356.684418,209.701294 353.697968,209.365280 
	C348.362061,208.764908 347.175018,211.509369 347.307800,216.228745 
	C347.546600,224.717346 347.376892,233.218018 347.342987,241.713501 
	C347.315247,248.672577 345.898956,250.088715 338.789520,250.141968 
	C331.687347,250.195160 324.584503,250.153625 317.030762,250.695236 
	C345.323822,270.536438 359.241028,297.250458 357.143402,331.653046 
	C355.943268,351.335632 348.178589,368.488098 334.803680,382.780212 
	C307.838226,411.594971 264.380341,419.286682 228.326706,398.492004 
	C195.568985,379.598328 178.792389,338.452789 189.526062,300.700165 
M200.231766,345.364960 
	C208.850693,379.328827 244.965164,403.243256 279.859650,398.934021 
	C325.158752,393.339905 350.771942,352.008881 346.016693,315.589447 
	C339.742096,267.534241 289.382355,237.047226 244.395355,255.200348 
	C207.311050,270.164581 190.048920,309.204041 200.231766,345.364960 
M255.957825,238.811600 
	C257.787170,238.824982 259.629578,238.703674 261.443207,238.879379 
	C265.383087,239.261047 266.722534,237.568527 266.575653,233.676208 
	C266.343842,227.532425 266.534332,221.371490 266.592804,215.218262 
	C266.657928,208.367752 261.471222,210.250412 257.666016,209.780060 
	C253.811020,209.303543 251.967987,210.900024 252.323090,214.834473 
	C252.704559,219.061096 250.504791,220.287643 246.608627,220.315445 
	C242.507629,220.344727 241.339615,218.306076 241.629379,214.706436 
	C241.916595,211.138611 240.269012,209.435715 236.690872,209.474579 
	C233.224594,209.512238 231.969635,211.376129 232.270966,214.609970 
	C232.649139,218.668732 230.792145,220.214294 226.749969,220.318436 
	C222.300110,220.433105 221.291504,218.198593 221.594147,214.437119 
	C221.865677,211.062454 220.110107,209.529053 216.867172,209.466080 
	C215.204376,209.433777 213.539993,209.465866 211.877930,209.416061 
	C208.829269,209.324753 207.257294,210.554214 207.306015,213.826904 
	C207.409988,220.811218 207.329605,227.798172 207.345566,234.783997 
	C207.348190,235.932892 207.086487,237.435898 208.224167,237.996048 
	C211.665161,239.690247 215.413528,239.052383 218.963120,238.573517 
	C222.112030,238.148727 221.695267,235.167282 221.588226,232.926636 
	C221.404312,229.077209 223.644043,228.643570 226.675354,228.669388 
	C229.790939,228.695953 232.483215,228.949570 232.260422,233.072113 
	C232.081757,236.378189 232.461411,238.932266 236.892563,238.922989 
	C241.200989,238.913971 241.933945,236.574173 241.642883,233.156815 
	C241.291367,229.029678 243.826843,228.679214 247.020508,228.659485 
	C250.293198,228.639282 252.587280,229.192978 252.384552,233.240753 
	C252.275024,235.428040 251.672623,238.160568 255.957825,238.811600 
M327.015472,238.853165 
	C328.015289,238.856262 329.015167,238.867569 330.014923,238.861160 
	C336.608795,238.818817 336.675507,238.765106 336.705475,232.131836 
	C336.730316,226.632843 336.468781,221.118988 336.795074,215.639160 
	C337.067535,211.063522 335.354828,209.359482 330.816376,209.369247 
	C323.373199,209.385284 323.055939,209.328751 322.751099,215.196625 
	C322.548279,219.100266 320.568054,220.355682 316.939178,220.267502 
	C313.560211,220.185394 311.404572,219.066360 311.627411,215.325378 
	C311.834564,211.846817 310.986389,209.326950 306.825134,209.471268 
	C303.045990,209.602325 302.057373,211.920837 302.344025,215.209595 
	C302.666412,218.908371 300.830292,220.248032 297.305267,220.281296 
	C293.706238,220.315216 291.362579,219.245270 291.709930,215.194626 
	C292.173859,209.784821 288.763336,209.439774 284.686646,209.367874 
	C280.429413,209.292786 277.422546,210.242905 277.445984,215.263306 
	C277.473206,221.095230 277.676758,226.942688 277.328217,232.754898 
	C277.039093,237.576324 278.797516,239.566818 283.587311,238.899109 
	C284.568634,238.762314 285.588135,238.811951 286.583313,238.877625 
	C290.070312,239.107697 292.084137,237.800171 291.681427,234.013779 
	C291.226990,229.740829 293.352325,228.635300 297.305908,228.600525 
	C301.333130,228.565125 302.753021,230.160660 302.344666,233.951935 
	C301.992310,237.223236 303.247711,238.875031 306.812256,238.916916 
	C310.208984,238.956833 311.777222,237.819916 311.485260,234.285782 
	C311.163452,230.391190 312.803223,228.629501 317.008545,228.602890 
	C321.488190,228.574554 323.096375,230.620712 322.845062,234.638199 
	C322.684662,237.202194 323.153320,238.964096 327.015472,238.853165 
z"/>
<path fill="#000000" opacity="1.000000" stroke="none" 
	d="
M405.798401,366.056396 
	C409.677429,372.646606 408.717621,379.895203 410.285736,386.620514 
	C410.697540,388.386627 410.864655,390.230774 410.949463,392.048157 
	C411.192963,397.265594 412.854645,400.611755 419.090607,399.815002 
	C422.751678,399.347229 423.250885,402.229950 423.255341,405.173828 
	C423.259979,408.257782 422.408325,410.428345 418.785034,410.340576 
	C416.620636,410.288086 414.453644,410.347137 412.287811,410.348358 
	C403.158020,410.353546 401.830811,409.151489 400.750397,400.003265 
	C400.029236,393.896729 399.330963,387.786346 398.494171,381.695312 
	C398.279053,380.129517 398.282959,378.348053 396.817719,377.200104 
	C390.722260,381.570435 386.526093,386.668884 388.075409,394.874207 
	C388.652435,397.930267 388.064240,401.191376 388.185852,404.352142 
	C388.341492,408.396881 387.020508,410.501648 382.473999,410.452789 
	C378.164429,410.406464 376.364258,408.836395 376.625916,404.528442 
	C376.827545,401.208527 376.123993,397.756561 376.772644,394.555756 
	C378.479919,386.131256 373.669250,381.458740 367.388824,376.981323 
	C365.188782,382.560028 365.437683,388.444977 364.305267,394.048492 
	C363.548218,397.794556 363.012512,401.586090 362.415070,405.363190 
	C362.231628,406.522736 362.079956,407.636719 361.223114,408.567627 
	C359.482422,410.458923 344.728729,411.394165 342.940063,409.480774 
	C340.882324,407.279480 341.631927,404.409546 341.994171,401.845947 
	C342.288422,399.763611 344.316376,399.546478 345.979980,399.766724 
	C351.014038,400.433228 352.787506,397.809631 353.275177,393.287323 
	C353.951263,387.017944 355.009094,380.790039 355.701263,374.522034 
	C356.522461,367.085815 357.908203,365.417664 365.079315,364.043915 
	C369.653992,363.167603 376.638611,354.867310 376.639893,350.214142 
	C376.655762,293.734222 376.598419,237.254150 376.763733,180.774704 
	C376.778961,175.573853 374.780823,174.126678 370.018738,174.098450 
	C359.644775,174.036926 349.327942,172.889069 339.834656,168.447845 
	C329.535492,163.629608 329.102417,157.599838 338.070374,150.718323 
	C338.446655,150.429596 338.726959,150.015808 339.028351,149.686142 
	C338.767487,147.594406 336.858521,147.214523 335.664307,146.177170 
	C329.984131,141.243118 330.496643,134.780838 336.992249,130.995010 
	C344.221252,126.781715 352.332550,125.702011 360.429596,124.708145 
	C364.221924,124.242676 368.049927,123.977028 371.869354,123.849449 
	C375.486145,123.728653 377.021698,122.034187 376.661804,118.487442 
	C376.611664,117.993362 376.664948,117.488640 376.672516,116.988876 
	C376.732758,113.018951 377.553253,109.180229 382.405731,109.252129 
	C387.204071,109.323219 388.384216,113.319183 388.027344,117.139885 
	C387.516174,122.612846 389.934174,123.784912 394.862457,124.069221 
	C404.457214,124.622765 414.163910,125.059647 423.201324,129.009125 
	C425.641998,130.075729 428.123230,131.086166 430.025696,133.067825 
	C433.424835,136.608536 433.543976,141.082703 430.213531,144.665955 
	C428.770203,146.218872 427.134430,147.592926 425.730469,148.912491 
	C425.934570,150.627441 427.216400,150.966919 428.073181,151.684097 
	C434.726837,157.253510 434.243439,163.378372 426.536682,167.482651 
	C416.731537,172.704391 405.898773,173.602814 395.077484,174.201340 
	C388.130280,174.585587 388.128479,174.432022 388.130341,181.116821 
	C388.145782,236.763687 388.156555,292.410553 388.174408,348.057404 
	C388.177094,356.486359 394.306183,363.431335 402.767761,364.724274 
	C403.710205,364.868317 404.591553,365.412140 405.798401,366.056396 
M388.319824,163.651611 
	C397.529480,162.914169 406.781769,162.414215 415.551056,158.847839 
	C393.306458,153.468155 371.189423,153.297699 349.091187,159.025528 
	C361.645508,162.850052 374.411072,164.072083 388.319824,163.651611 
M359.531158,141.824356 
	C378.615082,145.205353 408.505920,143.549957 416.226685,138.231293 
	C393.134247,133.128265 370.813110,133.276886 348.536011,138.858673 
	C351.827728,140.550217 355.103790,141.732376 359.531158,141.824356 
M381.726379,365.576660 
	C379.169525,366.416107 377.950745,368.168427 378.467468,370.829407 
	C378.814758,372.617920 380.094238,373.616699 381.936737,373.785431 
	C383.986389,373.973083 385.574249,373.141296 386.174744,371.190765 
	C387.185547,367.907562 385.281464,366.345703 381.726379,365.576660 
z"/>
<path fill="#000000" opacity="1.000000" stroke="none" 
	d="
M180.640747,407.021820 
	C178.534576,396.900909 178.832886,386.830627 176.375519,377.228577 
	C169.006866,381.463898 165.699036,387.367737 167.119080,395.744141 
	C167.585953,398.498169 167.219803,401.398254 167.187424,404.231018 
	C167.120285,410.102966 166.428375,410.568237 160.400528,410.390900 
	C157.154663,410.295380 155.905182,408.862152 155.931534,405.812012 
	C155.970398,401.312714 155.779709,396.804993 155.992264,392.315308 
	C156.215210,387.606110 155.915298,383.371063 150.995758,380.903137 
	C149.428207,380.116791 149.040573,377.819885 146.769257,377.044403 
	C144.320969,386.606934 143.743805,396.386169 142.542892,406.010345 
	C141.806519,411.911621 138.354019,410.367340 135.101212,410.253937 
	C131.156158,410.116364 130.835434,407.886749 131.362427,404.423431 
	C133.012329,393.580566 134.367554,382.689941 135.656723,371.796509 
	C136.180740,367.368835 138.127350,364.938324 142.749695,364.278473 
	C149.599884,363.300568 155.939056,355.585297 155.946106,348.746552 
	C155.978043,317.748627 155.966293,286.750610 156.058884,255.752899 
	C156.070831,251.752686 155.477219,248.763214 151.737595,246.015625 
	C144.087875,240.395187 144.128250,229.146301 151.701172,223.034256 
	C155.150940,220.250000 156.207184,217.323074 156.064026,213.216232 
	C155.850113,207.079285 156.008484,200.929352 156.008484,194.958282 
	C153.953400,193.968185 153.131668,195.372574 152.216232,196.129654 
	C150.812729,197.290390 149.581192,198.666962 148.328201,200.000336 
	C144.096039,204.503952 140.276352,205.550949 137.674423,202.884750 
	C135.056015,200.201691 135.916000,197.104279 140.394043,192.658600 
	C151.509430,181.623657 162.605515,170.569244 173.686386,159.499664 
	C174.963821,158.223557 176.506256,157.131805 177.129578,155.277496 
	C176.419281,153.176895 174.597626,153.407410 172.988419,153.341522 
	C166.739944,153.085663 160.914154,151.058350 155.109818,149.022583 
	C153.413315,148.427551 151.790833,147.415680 150.360260,146.304169 
	C144.436523,141.701630 144.940353,134.528641 151.427704,130.712128 
	C157.891846,126.909264 165.167694,125.860893 172.404160,124.730286 
	C173.716324,124.525284 175.062195,124.543884 176.380371,124.368210 
	C184.634033,123.268242 184.636612,123.260399 186.190552,114.932137 
	C186.782700,111.758514 187.944733,108.903511 191.768143,109.097672 
	C195.732040,109.298973 196.870544,112.282059 197.198959,115.705482 
	C197.919067,123.212059 197.892670,123.439423 205.595703,124.235512 
	C213.402267,125.042305 221.089813,126.157906 228.451401,129.001419 
	C233.110611,130.801102 236.794174,133.764282 237.111572,138.945938 
	C237.419418,143.971771 233.515244,146.465317 229.549484,148.530823 
	C220.549057,153.218597 210.561737,153.222214 200.856125,154.223145 
	C195.889191,154.735352 192.099899,156.310669 188.690964,159.982712 
	C182.913589,166.205994 176.786102,172.111710 170.665344,178.005051 
	C168.217270,180.362183 167.050217,182.892807 167.115036,186.356812 
	C167.292770,195.852753 167.241547,205.354843 167.143005,214.853058 
	C167.111633,217.876663 167.847275,220.038681 170.434921,222.086197 
	C179.530212,229.283035 179.380936,239.925781 170.174896,247.004135 
	C167.893097,248.758591 167.130829,250.655548 167.135788,253.346130 
	C167.195694,285.843811 167.183899,318.341644 167.238800,350.839325 
	C167.246597,355.453522 174.505035,363.630646 179.531998,364.134827 
	C185.152618,364.698517 187.023819,367.510345 187.486633,372.904846 
	C188.309708,382.498444 189.916122,392.023529 191.135162,401.584900 
	C192.105850,409.198303 190.778275,410.796631 184.166840,410.665527 
	C181.844284,410.619446 180.778717,409.668121 180.640747,407.021820 
M204.518417,142.877838 
	C210.098663,142.213470 215.847031,142.197845 221.398438,139.041367 
	C208.931946,132.812225 169.325058,133.287018 161.892181,139.765350 
	C175.825546,143.612396 189.612259,144.488571 204.518417,142.877838 
M165.212036,236.629395 
	C166.085983,234.203232 165.951218,231.995270 163.401337,230.716248 
	C161.407425,229.716125 159.489548,230.168152 158.135468,231.987244 
	C156.903687,233.642014 157.055389,235.481277 158.333420,237.000259 
	C160.318649,239.359756 162.558090,239.149933 165.212036,236.629395 
M165.339890,368.313995 
	C164.001373,365.996887 162.249176,364.844147 159.622284,366.368286 
	C157.850769,367.396149 156.995682,368.960388 157.567017,370.967865 
	C158.144394,372.996613 159.749191,373.861542 161.769394,373.710419 
	C164.633270,373.496185 165.838776,371.814545 165.339890,368.313995 
z"/>
<path fill="#000000" opacity="1.000000" stroke="none" 
	d="
M296.127014,139.934845 
	C292.599274,139.720139 289.386475,139.837982 286.322571,139.218964 
	C282.222321,138.390564 280.553009,134.859360 282.536865,131.242401 
	C286.232574,124.504349 291.659119,118.999199 296.261353,112.906059 
	C298.175079,110.372337 300.485260,112.029747 302.301666,113.599083 
	C304.096558,115.149841 306.805176,116.428452 304.601135,119.603195 
	C302.829834,122.154556 301.162231,124.777870 299.243805,127.679008 
	C303.116791,129.358658 306.625549,128.487091 310.005493,128.615952 
	C312.869568,128.725128 315.403259,129.347900 316.763672,131.976074 
	C318.213013,134.776001 316.660950,136.983490 314.870697,139.153915 
	C309.373413,145.818527 303.881042,152.492996 298.610809,159.336166 
	C296.505524,162.069778 294.753326,162.445068 292.135132,160.144196 
	C289.622375,157.935959 287.078400,156.055405 290.255981,152.452606 
	C292.779907,149.590912 295.145874,146.581345 297.446411,143.535080 
	C298.497192,142.143616 300.183746,140.248245 296.127014,139.934845 
z"/>
<path fill="#000000" opacity="1.000000" stroke="none" 
	d="
M258.447266,184.449799 
	C255.291260,188.772583 253.162216,185.511154 250.857391,183.914703 
	C248.243240,182.104004 248.329071,180.164932 250.048386,177.585648 
	C252.845413,173.389633 257.129395,170.239883 259.375305,165.134109 
	C255.588455,163.907898 252.265182,164.510925 249.019699,164.440216 
	C246.221252,164.379257 243.616028,164.132477 242.244766,161.287033 
	C240.893784,158.483643 242.147202,156.137802 243.830551,153.937668 
	C247.667572,148.922638 251.594559,143.973251 255.310440,138.870087 
	C257.054688,136.474655 258.781921,135.935455 261.051788,137.933716 
	C263.172394,139.800537 266.630096,141.014771 264.393250,145.014679 
	C262.949707,147.596039 260.563232,149.610260 259.663879,152.809799 
	C262.976410,154.711670 266.513306,153.661758 269.867462,153.820724 
	C272.921967,153.965500 275.519257,154.648132 276.777283,157.694519 
	C277.919647,160.460785 276.230927,162.367126 274.602295,164.361099 
	C269.241486,170.924515 263.979156,177.568344 258.447266,184.449799 
z"/>
<path fill="#000000" opacity="1.000000" stroke="none" 
	d="
M330.217041,355.032410 
	C313.228363,383.436768 286.765717,395.122833 255.443604,388.329803 
	C228.825027,382.556854 207.792862,355.258911 206.392487,327.895844 
	C204.753448,295.868866 226.972275,271.267487 249.354172,262.982025 
	C281.464874,251.095093 318.851959,266.992065 331.990295,298.754791 
	C339.777557,317.580963 339.490997,336.293915 330.217041,355.032410 
M297.368866,276.138092 
	C284.727570,269.158142 271.144806,268.354431 257.619659,271.773834 
	C229.748154,278.820312 213.345978,307.027435 218.053802,333.788971 
	C221.684662,354.428619 238.438873,375.534698 266.678314,379.133392 
	C284.578979,381.414551 308.659515,371.355133 319.718506,351.136780 
	C333.450928,326.030823 326.041229,292.074982 297.368866,276.138092 
z"/>
<path fill="#000000" opacity="1.000000" stroke="none" 
	d="
M261.028595,360.260956 
	C246.710587,360.257324 246.603577,360.262177 245.993546,346.824768 
	C245.838074,343.399994 244.181824,341.606445 241.357864,340.503571 
	C237.750290,339.094635 236.309555,336.592468 236.611206,332.732239 
	C237.127151,326.129364 235.815979,319.441620 237.879898,312.893951 
	C243.236832,295.899475 258.919861,286.443298 277.872925,288.927490 
	C294.162781,291.062561 306.355713,304.395020 307.378754,321.176117 
	C307.540710,323.833282 307.767609,326.486420 307.939697,329.143005 
	C308.300964,334.720947 307.158356,339.348389 301.019104,341.376923 
	C298.428772,342.232788 297.172546,344.413177 297.320648,347.275208 
	C297.397949,348.769958 297.325439,350.272736 297.314056,351.771820 
	C297.258057,359.140320 296.190613,360.247406 289.006927,360.260101 
	C279.845459,360.276276 270.683960,360.262115 261.028595,360.260956 
M295.957062,322.398865 
	C295.655579,320.096893 295.652008,317.707001 295.002899,315.507629 
	C291.557587,303.834076 277.986694,297.345215 264.913116,300.985077 
	C252.251083,304.510345 244.371002,317.320068 247.396210,329.389069 
	C247.703812,330.616180 248.281067,331.724548 249.347504,332.140717 
	C255.671570,334.608337 258.150421,339.130768 257.527283,345.845398 
	C257.250702,348.825653 259.593353,349.671967 262.271576,349.596252 
	C264.804901,349.524658 266.434265,348.492950 266.546143,345.784332 
	C266.614868,344.120422 266.673553,342.446411 266.571655,340.787109 
	C266.340210,337.018982 266.854095,334.469482 271.800354,334.543640 
	C276.263702,334.610504 277.883118,336.234344 277.447449,340.457886 
	C277.363068,341.276031 277.457245,342.128448 277.578033,342.949005 
	C278.023651,345.975494 277.514282,349.686768 282.370575,349.569977 
	C287.288574,349.451660 286.735168,345.869598 286.612244,342.752899 
	C286.471039,339.173065 287.000061,335.644562 290.559418,334.316376 
	C296.162140,332.225677 297.068115,328.365326 295.957062,322.398865 
z"/>
<path fill="#000000" opacity="1.000000" stroke="none" 
	d="
M256.655029,320.014465 
	C255.983261,314.991547 258.374268,313.834534 262.445282,313.891052 
	C266.003540,313.940430 267.812683,315.166351 267.338837,318.885040 
	C267.000488,321.540283 268.678375,325.393982 263.588104,325.270874 
	C260.224457,325.189514 256.066406,326.274597 256.655029,320.014465 
z"/>
<path fill="#000000" opacity="1.000000" stroke="none" 
	d="
M285.730225,324.974945 
	C283.959412,325.171814 282.631378,325.311646 281.312347,325.252014 
	C279.391754,325.165192 276.826996,325.572845 276.853760,322.661285 
	C276.879242,319.891785 275.068817,316.291840 278.408234,314.563507 
	C280.834381,313.307861 284.691803,312.834381 286.332092,315.081940 
	C288.306580,317.787354 288.089752,321.595001 285.730225,324.974945 
z"/>
</svg>