<svg version="1.1" id="Layer_1" xmlns="http://www.w3.org/2000/svg" xmlns:xlink="http://www.w3.org/1999/xlink" x="0px" y="0px"
	 width="100%" viewBox="0 0 426 430" enable-background="new 0 0 426 430" xml:space="preserve">
<path fill="#0D1116" opacity="1.000000" stroke="none" 
	d="
M1.000000,101.000000 
	C1.000000,67.343018 1.000000,34.186028 0.999999,1.021782 
	C142.948868,1.014521 284.897736,1.014521 426.923309,1.014521 
	C426.923309,144.240326 426.923309,287.480713 426.923309,430.860535 
	C285.000092,430.860535 143.000061,430.860535 1.000000,430.860535 
	C1.000000,321.102264 1.000000,211.301132 1.000000,101.000000 
M414.566864,413.818054 
	C415.711212,410.459930 417.851410,407.103210 417.856018,403.743530 
	C418.026672,279.165039 418.031860,154.586288 417.831818,30.007915 
	C417.826294,26.570585 415.328339,23.137259 413.809784,19.424929 
	C413.667358,19.251158 413.496765,19.111977 412.818115,18.433102 
	C409.459991,17.288744 406.103241,15.148463 402.743561,15.143861 
	C278.165070,14.973209 153.586288,14.968035 29.007895,15.168092 
	C25.570570,15.173611 22.137249,17.671625 18.424940,19.190226 
	C18.251158,19.332609 18.111973,19.503220 17.433121,20.181911 
	C16.288759,23.540070 14.148465,26.896864 14.143864,30.256582 
	C13.973217,154.835022 13.968037,279.413757 14.168088,403.992096 
	C14.173608,407.429413 16.671619,410.862762 18.190226,414.575043 
	C18.332602,414.748840 18.503212,414.888031 19.181911,415.566864 
	C22.540066,416.711212 25.896858,418.851410 29.256577,418.856018 
	C153.835007,419.026672 278.413757,419.031860 402.992096,418.831818 
	C406.429413,418.826324 409.862762,416.328369 413.575043,414.809814 
	C413.748840,414.667450 413.888031,414.496826 414.566864,413.818054 
z"/>
<path fill="#151617" opacity="1.000000" stroke="none" 
	d="
M18.702053,414.992584 
	C18.503212,414.888031 18.332602,414.748840 18.109243,414.005310 
	C17.351521,407.889496 16.089746,402.343994 16.084255,396.797211 
	C15.969939,281.311066 15.947593,165.824707 16.085327,50.338608 
	C16.097507,40.125675 17.337599,29.914204 18.007381,19.702053 
	C18.111973,19.503220 18.251158,19.332609 18.994673,19.109243 
	C25.110508,18.351519 30.656031,17.089745 36.202797,17.084255 
	C151.688950,16.969934 267.175293,16.947599 382.661407,17.085327 
	C392.874329,17.097507 403.085785,18.337599 413.297943,19.007383 
	C413.496765,19.111977 413.667358,19.251158 413.890747,19.994667 
	C414.648499,26.110508 415.910370,31.656031 415.915894,37.202793 
	C416.030212,152.688934 416.052521,268.175293 415.914764,383.661407 
	C415.902588,393.874329 414.662384,404.085785 413.992554,414.297943 
	C413.888031,414.496826 413.748840,414.667450 413.005310,414.890778 
	C406.889496,415.648499 401.343964,416.910370 395.797180,416.915863 
	C280.311035,417.030182 164.824707,417.052521 49.338615,416.914764 
	C39.125679,416.902588 28.914206,415.662415 18.702053,414.992584 
M143.665710,155.824539 
	C141.754364,155.824539 139.843018,155.824539 137.984924,155.824539 
	C137.984924,158.957840 137.984924,161.386826 137.984924,163.957138 
	C138.916168,164.029190 139.584641,164.215622 140.201309,164.107239 
	C144.936447,163.275040 146.204742,165.362167 145.934677,169.890060 
	C145.558258,176.200928 145.834473,182.551041 145.841171,188.884369 
	C145.849579,196.847229 146.442169,197.446976 154.314575,197.457169 
	C160.180634,197.464767 166.046722,197.458679 172.967514,197.458679 
	C129.305099,227.049622 127.953979,278.868439 159.257736,309.688843 
	C183.570480,333.626221 228.799026,339.769073 260.492767,305.865692 
	C272.979431,292.508453 278.593903,276.064880 278.121307,257.523804 
	C277.459503,231.562439 265.027161,212.544525 242.674866,197.458939 
	C250.621735,197.458939 257.022369,197.284042 263.408142,197.516647 
	C268.150696,197.689423 270.133759,195.658188 270.064209,191.040756 
	C269.971283,184.875504 270.042206,178.707794 270.042633,172.541138 
	C270.043182,164.679916 270.043121,164.679916 277.959106,163.666733 
	C277.959106,161.177567 277.959106,158.647354 277.959106,155.824615 
	C233.268585,155.824615 188.948288,155.824615 143.665710,155.824539 
M282.753265,322.255676 
	C283.971344,315.314301 285.189453,308.372955 286.566315,300.526855 
	C288.553253,302.836517 289.549622,305.053162 291.152344,305.654968 
	C295.573059,307.314941 295.181854,310.661652 295.114441,314.182831 
	C295.020325,319.101349 295.090729,324.022980 295.090729,329.041321 
	C298.224457,329.041321 300.616119,329.041321 303.462280,329.041321 
	C303.462280,322.855957 303.385529,317.053375 303.519440,311.255646 
	C303.550598,309.906128 303.919586,308.204987 304.792786,307.307129 
	C306.781433,305.262238 309.179169,303.615204 311.947205,301.371643 
	C312.316071,303.296204 312.731842,304.970093 312.945190,306.669464 
	C313.649139,312.275726 313.962006,317.956665 315.097961,323.470306 
	C315.541443,325.622650 317.503754,328.740753 319.243561,329.091553 
	C323.362152,329.921967 327.761841,329.358398 331.930237,329.358398 
	C333.359589,321.816345 333.189850,321.780365 326.835571,321.047150 
	C325.445343,320.886719 323.402527,319.107758 323.129333,317.773438 
	C321.797363,311.267914 321.099426,304.634796 319.868713,298.104919 
	C319.512512,296.215057 317.848938,292.885132 317.267059,292.986450 
	C311.758972,293.945282 309.544525,289.363647 306.348785,286.762787 
	C304.832275,285.528534 303.593567,282.970032 303.587280,281.007111 
	C303.437531,234.030823 303.527161,187.053787 303.379303,140.077484 
	C303.366150,135.896973 304.615326,134.996872 308.658844,134.622375 
	C317.967804,133.760193 327.645020,134.202988 336.055115,128.779816 
	C341.053070,125.556923 341.584717,121.367828 337.212952,117.531738 
	C336.057739,116.518105 334.866547,115.545540 333.543518,114.428909 
	C334.313873,113.811119 334.773285,113.578156 335.040131,113.206795 
	C336.780975,110.784065 339.628571,108.452217 339.901703,105.857727 
	C340.242310,102.622200 337.916260,99.780487 334.010620,98.985039 
	C327.081757,97.573837 320.223602,95.810661 313.284973,94.455147 
	C310.532959,93.917526 306.931152,95.030617 305.040527,93.618752 
	C303.467194,92.443855 303.834381,88.673813 303.333466,86.054893 
	C303.271271,85.729553 303.259613,85.294250 303.049438,85.113739 
	C301.647766,83.909775 300.310059,82.127525 298.720184,81.847702 
	C297.856201,81.695633 296.321960,84.005524 295.501129,85.440140 
	C294.976837,86.356400 294.960876,87.741592 295.137665,88.849403 
	C295.823975,93.149788 293.765228,94.272682 289.836517,94.269989 
	C280.308929,94.263458 270.933289,95.153557 262.242645,99.712158 
	C257.562347,102.167160 256.499146,107.513466 260.329132,111.167244 
	C261.581726,112.362228 263.033508,113.348442 264.839508,114.784126 
	C262.921570,116.164391 261.402863,117.122650 260.040039,118.266655 
	C257.364716,120.512489 257.183258,125.821579 260.084625,127.383652 
	C264.091003,129.540619 268.331665,131.621368 272.725067,132.609375 
	C278.183167,133.836792 283.889099,134.085678 289.508057,134.432404 
	C293.512451,134.679520 295.216217,135.919312 295.199280,140.433853 
	C295.023529,187.243362 295.094086,234.053802 295.089630,280.863983 
	C295.089294,284.344879 288.146820,292.402740 284.734039,292.254639 
	C279.506592,292.027771 278.244781,294.929260 277.764679,299.276672 
	C277.071442,305.553589 276.194031,311.819427 275.071655,318.031555 
	C274.857880,319.214630 273.274597,320.824768 272.097992,321.047302 
	C265.629517,322.270844 265.605499,322.143799 266.877655,329.423737 
	C269.420898,329.423737 272.087250,329.157623 274.680267,329.480469 
	C279.698303,330.105225 282.790283,328.735413 282.753265,322.255676 
M149.672043,94.144760 
	C143.723282,94.178078 146.313904,89.640770 145.929230,86.871956 
	C145.560944,84.221344 145.154877,81.214615 142.003006,81.781158 
	C140.327927,82.082253 139.061081,84.967522 137.756348,86.791046 
	C137.439148,87.234367 137.597183,88.108864 137.710785,88.754471 
	C138.442398,92.912758 136.580963,93.886040 132.574066,94.408539 
	C125.258644,95.362473 118.085861,97.390999 110.840302,98.907860 
	C107.053185,99.700691 104.755035,102.123520 104.881042,105.787216 
	C105.014893,109.679207 107.348038,112.502670 111.327721,113.638535 
	C117.775810,115.478943 124.214455,117.352493 131.113876,119.343903 
	C127.031998,123.506905 122.875618,127.830551 118.625900,132.060425 
	C112.055405,138.600250 105.371437,145.026657 98.842018,151.606796 
	C96.688744,153.776810 95.439491,156.556580 98.224823,159.011200 
	C100.716255,161.206833 102.581947,159.417938 104.451561,157.393661 
	C106.699226,154.960083 109.348190,152.897110 112.863518,149.739395 
	C112.863518,157.953903 112.975273,164.556732 112.755119,171.148453 
	C112.717789,172.266312 111.469139,173.645676 110.414856,174.379318 
	C102.797935,179.679672 103.014725,189.781296 110.084656,194.892319 
	C111.439331,195.871658 112.755722,197.985046 112.765236,199.583115 
	C112.928009,226.911880 112.907867,254.242004 112.811394,281.571411 
	C112.806198,283.043152 112.201958,285.207886 111.144630,285.856049 
	C107.317574,288.202148 105.483963,293.920563 99.447662,292.828003 
	C98.746742,292.701141 97.233200,295.023376 96.711510,296.437195 
	C95.974419,298.434631 95.686295,300.628296 95.423538,302.764832 
	C94.358391,311.425812 93.376350,320.097046 92.370384,328.707001 
	C100.292252,330.006683 100.301971,330.008087 101.249008,323.408447 
	C102.303299,316.061401 103.337532,308.711456 104.516846,300.402069 
	C106.443672,302.688385 107.594223,305.262054 109.475616,306.018860 
	C112.764359,307.341858 112.966805,309.476776 112.913834,312.307831 
	C112.809120,317.905365 112.882935,323.506226 112.882935,329.207794 
	C115.897385,329.207794 118.333229,329.207794 121.164085,329.207794 
	C121.164085,324.177490 121.863426,319.250061 121.006638,314.609955 
	C119.581078,306.889557 126.847565,305.695221 129.079422,300.853241 
	C129.468353,300.997742 129.857285,301.142212 130.246231,301.286713 
	C131.225555,310.632843 132.204895,319.978973 133.233109,329.791626 
	C136.145981,329.504669 138.505829,329.272217 141.731308,328.954468 
	C140.279022,317.722626 138.955353,307.014008 137.433105,296.333679 
	C137.251053,295.056274 135.883240,292.847290 135.243835,292.909485 
	C130.072266,293.412170 127.027542,290.292175 124.250214,286.839661 
	C122.922844,285.189545 121.309502,283.079041 121.295891,281.166595 
	C121.103943,254.171494 121.103592,227.174164 121.297691,200.179108 
	C121.311218,198.297012 122.792976,195.909561 124.324379,194.641922 
	C131.683319,188.550446 130.687317,180.113373 123.768845,174.403351 
	C122.492615,173.350052 121.327995,171.349960 121.282036,169.753189 
	C121.037636,161.261307 121.025795,152.754669 121.271233,144.262894 
	C121.327179,142.327438 122.250191,139.983398 123.576965,138.594131 
	C129.034012,132.879944 134.658096,127.302643 140.535416,122.025436 
	C142.436005,120.318916 145.195343,119.212105 147.742752,118.648338 
	C155.970459,116.827408 164.335876,115.614983 172.536514,113.691826 
	C176.016876,112.875633 178.845413,110.484413 178.899261,106.327606 
	C178.952271,102.237000 176.594498,99.707481 172.845627,98.837730 
	C165.469177,97.126366 158.018387,95.735367 149.672043,94.144760 
M195.089157,132.434341 
	C192.962112,135.082626 190.835083,137.730927 188.526398,140.605362 
	C189.584808,141.386444 190.576889,141.798233 191.077118,142.541183 
	C193.767548,146.536942 195.389114,145.344009 197.825409,141.959106 
	C201.648132,136.647934 206.357330,131.980652 210.300293,126.746315 
	C211.391327,125.297935 211.663071,122.668198 211.214188,120.851387 
	C210.973572,119.877495 208.441010,119.057777 206.873032,118.910583 
	C203.704468,118.613113 200.488388,118.821877 195.889297,118.821877 
	C198.243423,115.561363 199.704422,113.639725 201.054779,111.643234 
	C202.989304,108.783035 201.401337,106.672356 198.973145,105.681938 
	C197.776947,105.194031 195.323700,105.938095 194.393265,106.978134 
	C190.909210,110.872627 187.730484,115.053665 184.608521,119.254517 
	C182.038574,122.712601 184.007446,126.798393 188.304596,127.007767 
	C191.506973,127.163795 194.723038,127.038498 198.831253,127.038498 
	C197.410370,129.310699 196.564133,130.663956 195.089157,132.434341 
M221.815643,93.299942 
	C220.740891,94.770386 219.425919,96.126228 218.655243,97.741730 
	C217.787720,99.560211 216.351517,102.337029 217.072357,103.391357 
	C218.116730,104.918907 220.808640,105.681847 222.919418,106.026817 
	C225.550430,106.456818 228.305130,106.130043 232.392365,106.130043 
	C228.234528,111.546364 225.012314,115.743889 221.577850,120.217896 
	C223.661423,121.894905 225.556870,123.420494 227.632904,125.091423 
	C233.119400,118.433174 238.654190,111.956764 243.899109,105.253563 
	C246.674347,101.706688 244.964722,98.434250 240.299896,98.107872 
	C236.944687,97.873131 233.559799,98.062180 228.991302,98.062180 
	C231.081635,95.103485 232.421234,93.306175 233.652725,91.437614 
	C234.983673,89.418137 236.126602,87.512482 233.252884,85.550522 
	C230.468338,83.649429 228.466843,84.169472 226.632217,86.715218 
	C225.181946,88.727585 223.710999,90.725052 221.815643,93.299942 
z"/>
<path fill="#313439" opacity="1.000000" stroke="none" 
	d="
M414.279724,414.057983 
	C414.662384,404.085785 415.902588,393.874329 415.914764,383.661407 
	C416.052521,268.175293 416.030212,152.688934 415.915894,37.202793 
	C415.910370,31.656031 414.648499,26.110508 413.982178,20.133236 
	C415.328339,23.137259 417.826294,26.570585 417.831818,30.007915 
	C418.031860,154.586288 418.026672,279.165039 417.856018,403.743530 
	C417.851410,407.103210 415.711212,410.459930 414.279724,414.057983 
z"/>
<path fill="#313439" opacity="1.000000" stroke="none" 
	d="
M17.720251,19.941982 
	C17.337599,29.914204 16.097507,40.125675 16.085327,50.338608 
	C15.947593,165.824707 15.969939,281.311066 16.084255,396.797211 
	C16.089746,402.343994 17.351521,407.889496 18.017813,413.866760 
	C16.671619,410.862762 14.173608,407.429413 14.168088,403.992096 
	C13.968037,279.413757 13.973217,154.835022 14.143864,30.256582 
	C14.148465,26.896864 16.288759,23.540070 17.720251,19.941982 
z"/>
<path fill="#313439" opacity="1.000000" stroke="none" 
	d="
M413.058044,18.720242 
	C403.085785,18.337599 392.874329,17.097507 382.661407,17.085327 
	C267.175293,16.947599 151.688950,16.969934 36.202797,17.084255 
	C30.656031,17.089745 25.110508,18.351519 19.133232,19.017815 
	C22.137249,17.671625 25.570570,15.173611 29.007895,15.168092 
	C153.586288,14.968035 278.165070,14.973209 402.743561,15.143861 
	C406.103241,15.148463 409.459991,17.288744 413.058044,18.720242 
z"/>
<path fill="#313439" opacity="1.000000" stroke="none" 
	d="
M18.941982,415.279724 
	C28.914206,415.662415 39.125679,416.902588 49.338615,416.914764 
	C164.824707,417.052521 280.311035,417.030182 395.797180,416.915863 
	C401.343964,416.910370 406.889496,415.648499 412.866760,414.982178 
	C409.862762,416.328369 406.429413,418.826324 402.992096,418.831818 
	C278.413757,419.031860 153.835007,419.026672 29.256577,418.856018 
	C25.896858,418.851410 22.540066,416.711212 18.941982,415.279724 
z"/>
<path fill="#F9F9FA" opacity="1.000000" stroke="none" 
	d="
M144.146851,155.824585 
	C188.948288,155.824615 233.268585,155.824615 277.959106,155.824615 
	C277.959106,158.647354 277.959106,161.177567 277.959106,163.666733 
	C270.043121,164.679916 270.043182,164.679916 270.042633,172.541138 
	C270.042206,178.707794 269.971283,184.875504 270.064209,191.040756 
	C270.133759,195.658188 268.150696,197.689423 263.408142,197.516647 
	C257.022369,197.284042 250.621735,197.458939 242.674866,197.458939 
	C265.027161,212.544525 277.459503,231.562439 278.121307,257.523804 
	C278.593903,276.064880 272.979431,292.508453 260.492767,305.865692 
	C228.799026,339.769073 183.570480,333.626221 159.257736,309.688843 
	C127.953979,278.868439 129.305099,227.049622 172.967514,197.458679 
	C166.046722,197.458679 160.180634,197.464767 154.314575,197.457169 
	C146.442169,197.446976 145.849579,196.847229 145.841171,188.884369 
	C145.834473,182.551041 145.558258,176.200928 145.934677,169.890060 
	C146.204742,165.362167 144.936447,163.275040 140.201309,164.107239 
	C139.584641,164.215622 138.916168,164.029190 137.984924,163.957138 
	C137.984924,161.386826 137.984924,158.957840 137.984924,155.824539 
	C139.843018,155.824539 141.754364,155.824539 144.146851,155.824585 
M266.156067,281.479980 
	C267.221893,277.125549 268.728882,272.826019 269.278442,268.407379 
	C271.901367,247.318710 266.026154,228.779892 250.611572,214.103653 
	C239.682312,203.697876 226.475693,197.976593 210.848557,197.449631 
	C190.267181,196.755600 173.124451,203.940170 160.398529,219.467255 
	C144.354324,239.043030 141.069183,261.666656 151.578690,284.820587 
	C161.507645,306.695526 179.360672,318.920532 203.524277,320.955444 
	C219.762222,322.322876 234.369568,317.515411 247.048965,307.375153 
	C255.442001,300.662872 261.776764,292.230988 266.156067,281.479980 
M154.527908,187.829239 
	C158.467041,188.264847 162.406174,188.700455 166.598038,189.164001 
	C166.746185,186.819580 166.812820,185.524475 166.914017,184.232086 
	C167.012573,182.973648 167.146515,181.718002 167.257599,180.538940 
	C173.753052,179.918594 173.753052,179.918594 175.330780,188.507385 
	C177.815140,188.507385 180.363678,188.507385 183.185471,188.507385 
	C183.398529,185.712982 183.594482,183.142792 183.789185,180.589066 
	C186.646484,180.589066 189.161041,180.589066 192.048065,180.589066 
	C192.048065,183.460739 192.048065,185.895111 192.048065,188.467438 
	C196.143158,188.467438 199.852158,188.467438 203.878128,188.467438 
	C203.878128,183.310867 203.878128,178.520142 203.878113,173.729401 
	C203.878113,163.477341 203.877686,163.470978 193.592453,164.183868 
	C193.138474,164.215347 192.705902,164.555954 192.169754,164.794159 
	C192.078583,165.793686 191.844269,166.787872 191.926178,167.755280 
	C192.188705,170.855820 191.583771,172.745850 187.745026,172.820648 
	C183.928757,172.895020 183.139282,171.151840 183.498322,167.977615 
	C183.851196,164.857880 182.304504,164.028549 179.377411,164.014023 
	C176.085495,163.997696 174.229492,164.851776 174.706497,168.520248 
	C175.079605,171.389557 174.025864,172.792664 170.851349,172.788971 
	C167.791702,172.785416 166.519974,171.646683 166.911057,168.653778 
	C167.367920,165.157410 165.829788,163.785370 162.365082,164.050903 
	C159.932922,164.237305 157.474915,164.086884 154.334381,164.086884 
	C154.334381,172.062485 154.334381,179.499771 154.527908,187.829239 
M240.565079,165.091080 
	C234.542953,162.916092 233.347809,163.461945 233.100143,169.209061 
	C232.968018,172.275146 231.402542,172.691681 228.939255,172.754761 
	C226.342911,172.821289 224.603668,172.197495 225.056564,169.172592 
	C225.727997,164.687988 223.350998,163.675720 219.517258,164.067001 
	C217.867035,164.235428 216.141907,163.921143 214.545181,164.264755 
	C213.647324,164.457962 212.269119,165.530075 212.253265,166.232132 
	C212.085907,173.637375 212.149689,181.047821 212.149689,188.448303 
	C216.796082,188.448303 220.700928,188.448303 224.750809,188.448303 
	C224.977798,185.511612 225.175858,182.949097 225.365875,180.490677 
	C228.106735,180.490677 230.357086,180.490677 232.781708,180.490677 
	C232.969986,183.361374 233.137878,185.921234 233.306244,188.488220 
	C236.042526,188.488220 238.280701,188.488220 240.297195,188.488220 
	C242.184235,185.593979 238.318817,180.298218 244.951721,180.082047 
	C252.217209,179.845276 247.622864,185.814026 249.895004,188.462357 
	C253.707687,188.462357 257.746460,188.462357 262.169800,188.462357 
	C262.169800,181.118790 262.291351,174.139633 262.039825,167.173950 
	C262.001740,166.119064 260.391205,164.589294 259.218658,164.233948 
	C257.539185,163.724976 255.583374,164.214722 253.763397,164.063431 
	C250.453415,163.788269 248.717834,164.780579 249.105850,168.517090 
	C249.237122,169.781311 248.528671,172.122391 247.810150,172.290771 
	C246.001205,172.714691 243.211441,172.897064 242.218643,171.847900 
	C241.015091,170.575989 241.253601,167.939484 240.565079,165.091080 
z"/>
<path fill="#F8F8F8" opacity="1.000000" stroke="none" 
	d="
M282.641541,322.662567 
	C282.790283,328.735413 279.698303,330.105225 274.680267,329.480469 
	C272.087250,329.157623 269.420898,329.423737 266.877655,329.423737 
	C265.605499,322.143799 265.629517,322.270844 272.097992,321.047302 
	C273.274597,320.824768 274.857880,319.214630 275.071655,318.031555 
	C276.194031,311.819427 277.071442,305.553589 277.764679,299.276672 
	C278.244781,294.929260 279.506592,292.027771 284.734039,292.254639 
	C288.146820,292.402740 295.089294,284.344879 295.089630,280.863983 
	C295.094086,234.053802 295.023529,187.243362 295.199280,140.433853 
	C295.216217,135.919312 293.512451,134.679520 289.508057,134.432404 
	C283.889099,134.085678 278.183167,133.836792 272.725067,132.609375 
	C268.331665,131.621368 264.091003,129.540619 260.084625,127.383652 
	C257.183258,125.821579 257.364716,120.512489 260.040039,118.266655 
	C261.402863,117.122650 262.921570,116.164391 264.839508,114.784126 
	C263.033508,113.348442 261.581726,112.362228 260.329132,111.167244 
	C256.499146,107.513466 257.562347,102.167160 262.242645,99.712158 
	C270.933289,95.153557 280.308929,94.263458 289.836517,94.269989 
	C293.765228,94.272682 295.823975,93.149788 295.137665,88.849403 
	C294.960876,87.741592 294.976837,86.356400 295.501129,85.440140 
	C296.321960,84.005524 297.856201,81.695633 298.720184,81.847702 
	C300.310059,82.127525 301.647766,83.909775 303.049438,85.113739 
	C303.259613,85.294250 303.271271,85.729553 303.333466,86.054893 
	C303.834381,88.673813 303.467194,92.443855 305.040527,93.618752 
	C306.931152,95.030617 310.532959,93.917526 313.284973,94.455147 
	C320.223602,95.810661 327.081757,97.573837 334.010620,98.985039 
	C337.916260,99.780487 340.242310,102.622200 339.901703,105.857727 
	C339.628571,108.452217 336.780975,110.784065 335.040131,113.206795 
	C334.773285,113.578156 334.313873,113.811119 333.543518,114.428909 
	C334.866547,115.545540 336.057739,116.518105 337.212952,117.531738 
	C341.584717,121.367828 341.053070,125.556923 336.055115,128.779816 
	C327.645020,134.202988 317.967804,133.760193 308.658844,134.622375 
	C304.615326,134.996872 303.366150,135.896973 303.379303,140.077484 
	C303.527161,187.053787 303.437531,234.030823 303.587280,281.007111 
	C303.593567,282.970032 304.832275,285.528534 306.348785,286.762787 
	C309.544525,289.363647 311.758972,293.945282 317.267059,292.986450 
	C317.848938,292.885132 319.512512,296.215057 319.868713,298.104919 
	C321.099426,304.634796 321.797363,311.267914 323.129333,317.773438 
	C323.402527,319.107758 325.445343,320.886719 326.835571,321.047150 
	C333.189850,321.780365 333.359589,321.816345 331.930237,329.358398 
	C327.761841,329.358398 323.362152,329.921967 319.243561,329.091553 
	C317.503754,328.740753 315.541443,325.622650 315.097961,323.470306 
	C313.962006,317.956665 313.649139,312.275726 312.945190,306.669464 
	C312.731842,304.970093 312.316071,303.296204 311.947205,301.371643 
	C309.179169,303.615204 306.781433,305.262238 304.792786,307.307129 
	C303.919586,308.204987 303.550598,309.906128 303.519440,311.255646 
	C303.385529,317.053375 303.462280,322.855957 303.462280,329.041321 
	C300.616119,329.041321 298.224457,329.041321 295.090729,329.041321 
	C295.090729,324.022980 295.020325,319.101349 295.114441,314.182831 
	C295.181854,310.661652 295.573059,307.314941 291.152344,305.654968 
	C289.549622,305.053162 288.553253,302.836517 286.566315,300.526855 
	C285.189453,308.372955 283.971344,315.314301 282.641541,322.662567 
M288.576965,118.818153 
	C282.477875,119.675995 276.378815,120.533844 270.279724,121.391685 
	C270.343201,121.984955 270.406647,122.578232 270.470123,123.171501 
	C289.600250,128.485092 308.717194,128.662567 329.211151,122.688171 
	C315.438843,117.306511 302.420959,118.860046 288.576965,118.818153 
M328.311554,105.579689 
	C308.739349,100.440018 289.213684,101.010330 269.645355,105.877586 
	C271.057465,106.938431 272.520386,107.925102 274.025818,107.994942 
	C286.630127,108.579666 299.244324,109.363174 311.851105,109.292969 
	C317.349548,109.262360 322.837616,107.377823 328.311554,105.579689 
M298.004272,300.638641 
	C301.402802,300.997070 303.103973,298.881317 302.918732,296.064697 
	C302.834625,294.785858 300.514618,293.435760 298.952484,292.593567 
	C298.422424,292.307800 296.273529,293.512573 296.291046,293.983032 
	C296.369843,296.096863 296.961945,298.191559 298.004272,300.638641 
z"/>
<path fill="#F9F9F9" opacity="1.000000" stroke="none" 
	d="
M150.135193,94.178299 
	C158.018387,95.735367 165.469177,97.126366 172.845627,98.837730 
	C176.594498,99.707481 178.952271,102.237000 178.899261,106.327606 
	C178.845413,110.484413 176.016876,112.875633 172.536514,113.691826 
	C164.335876,115.614983 155.970459,116.827408 147.742752,118.648338 
	C145.195343,119.212105 142.436005,120.318916 140.535416,122.025436 
	C134.658096,127.302643 129.034012,132.879944 123.576965,138.594131 
	C122.250191,139.983398 121.327179,142.327438 121.271233,144.262894 
	C121.025795,152.754669 121.037636,161.261307 121.282036,169.753189 
	C121.327995,171.349960 122.492615,173.350052 123.768845,174.403351 
	C130.687317,180.113373 131.683319,188.550446 124.324379,194.641922 
	C122.792976,195.909561 121.311218,198.297012 121.297691,200.179108 
	C121.103592,227.174164 121.103943,254.171494 121.295891,281.166595 
	C121.309502,283.079041 122.922844,285.189545 124.250214,286.839661 
	C127.027542,290.292175 130.072266,293.412170 135.243835,292.909485 
	C135.883240,292.847290 137.251053,295.056274 137.433105,296.333679 
	C138.955353,307.014008 140.279022,317.722626 141.731308,328.954468 
	C138.505829,329.272217 136.145981,329.504669 133.233109,329.791626 
	C132.204895,319.978973 131.225555,310.632843 130.246231,301.286713 
	C129.857285,301.142212 129.468353,300.997742 129.079422,300.853241 
	C126.847565,305.695221 119.581078,306.889557 121.006638,314.609955 
	C121.863426,319.250061 121.164085,324.177490 121.164085,329.207794 
	C118.333229,329.207794 115.897385,329.207794 112.882935,329.207794 
	C112.882935,323.506226 112.809120,317.905365 112.913834,312.307831 
	C112.966805,309.476776 112.764359,307.341858 109.475616,306.018860 
	C107.594223,305.262054 106.443672,302.688385 104.516846,300.402069 
	C103.337532,308.711456 102.303299,316.061401 101.249008,323.408447 
	C100.301971,330.008087 100.292252,330.006683 92.370384,328.707001 
	C93.376350,320.097046 94.358391,311.425812 95.423538,302.764832 
	C95.686295,300.628296 95.974419,298.434631 96.711510,296.437195 
	C97.233200,295.023376 98.746742,292.701141 99.447662,292.828003 
	C105.483963,293.920563 107.317574,288.202148 111.144630,285.856049 
	C112.201958,285.207886 112.806198,283.043152 112.811394,281.571411 
	C112.907867,254.242004 112.928009,226.911880 112.765236,199.583115 
	C112.755722,197.985046 111.439331,195.871658 110.084656,194.892319 
	C103.014725,189.781296 102.797935,179.679672 110.414856,174.379318 
	C111.469139,173.645676 112.717789,172.266312 112.755119,171.148453 
	C112.975273,164.556732 112.863518,157.953903 112.863518,149.739395 
	C109.348190,152.897110 106.699226,154.960083 104.451561,157.393661 
	C102.581947,159.417938 100.716255,161.206833 98.224823,159.011200 
	C95.439491,156.556580 96.688744,153.776810 98.842018,151.606796 
	C105.371437,145.026657 112.055405,138.600250 118.625900,132.060425 
	C122.875618,127.830551 127.031998,123.506905 131.113876,119.343903 
	C124.214455,117.352493 117.775810,115.478943 111.327721,113.638535 
	C107.348038,112.502670 105.014893,109.679207 104.881042,105.787216 
	C104.755035,102.123520 107.053185,99.700691 110.840302,98.907860 
	C118.085861,97.390999 125.258644,95.362473 132.574066,94.408539 
	C136.580963,93.886040 138.442398,92.912758 137.710785,88.754471 
	C137.597183,88.108864 137.439148,87.234367 137.756348,86.791046 
	C139.061081,84.967522 140.327927,82.082253 142.003006,81.781158 
	C145.154877,81.214615 145.560944,84.221344 145.929230,86.871956 
	C146.313904,89.640770 143.723282,94.178078 150.135193,94.178299 
M155.570221,102.879196 
	C142.237076,101.054039 129.121323,101.792145 115.438454,105.677414 
	C125.142487,111.537285 160.364349,111.226906 168.336578,105.377319 
	C164.093338,104.528931 160.265915,103.763672 155.570221,102.879196 
M116.637810,188.619904 
	C119.196663,188.581039 121.600128,187.882965 120.945457,184.803055 
	C120.607704,183.214096 118.990845,181.212921 117.534775,180.770294 
	C116.443115,180.438446 114.023788,181.963303 113.370842,183.255417 
	C112.236671,185.499817 112.817123,187.800858 116.637810,188.619904 
M118.132652,300.355988 
	C119.068138,298.547363 120.293297,296.801910 120.712357,294.880676 
	C120.804123,294.459930 117.947884,292.709991 116.587555,292.856506 
	C115.292122,292.996002 113.438896,294.637085 113.129929,295.928741 
	C112.381142,299.059113 114.665474,300.232147 118.132652,300.355988 
z"/>
<path fill="#F8F8F8" opacity="1.000000" stroke="none" 
	d="
M195.403534,132.225769 
	C196.564133,130.663956 197.410370,129.310699 198.831253,127.038498 
	C194.723038,127.038498 191.506973,127.163795 188.304596,127.007767 
	C184.007446,126.798393 182.038574,122.712601 184.608521,119.254517 
	C187.730484,115.053665 190.909210,110.872627 194.393265,106.978134 
	C195.323700,105.938095 197.776947,105.194031 198.973145,105.681938 
	C201.401337,106.672356 202.989304,108.783035 201.054779,111.643234 
	C199.704422,113.639725 198.243423,115.561363 195.889297,118.821877 
	C200.488388,118.821877 203.704468,118.613113 206.873032,118.910583 
	C208.441010,119.057777 210.973572,119.877495 211.214188,120.851387 
	C211.663071,122.668198 211.391327,125.297935 210.300293,126.746315 
	C206.357330,131.980652 201.648132,136.647934 197.825409,141.959106 
	C195.389114,145.344009 193.767548,146.536942 191.077118,142.541183 
	C190.576889,141.798233 189.584808,141.386444 188.526398,140.605362 
	C190.835083,137.730927 192.962112,135.082626 195.403534,132.225769 
z"/>
<path fill="#F8F8F8" opacity="1.000000" stroke="none" 
	d="
M222.032440,93.014542 
	C223.710999,90.725052 225.181946,88.727585 226.632217,86.715218 
	C228.466843,84.169472 230.468338,83.649429 233.252884,85.550522 
	C236.126602,87.512482 234.983673,89.418137 233.652725,91.437614 
	C232.421234,93.306175 231.081635,95.103485 228.991302,98.062180 
	C233.559799,98.062180 236.944687,97.873131 240.299896,98.107872 
	C244.964722,98.434250 246.674347,101.706688 243.899109,105.253563 
	C238.654190,111.956764 233.119400,118.433174 227.632904,125.091423 
	C225.556870,123.420494 223.661423,121.894905 221.577850,120.217896 
	C225.012314,115.743889 228.234528,111.546364 232.392365,106.130043 
	C228.305130,106.130043 225.550430,106.456818 222.919418,106.026817 
	C220.808640,105.681847 218.116730,104.918907 217.072357,103.391357 
	C216.351517,102.337029 217.787720,99.560211 218.655243,97.741730 
	C219.425919,96.126228 220.740891,94.770386 222.032440,93.014542 
z"/>
<path fill="#1C1D1E" opacity="1.000000" stroke="none" 
	d="
M265.971130,281.822845 
	C261.776764,292.230988 255.442001,300.662872 247.048965,307.375153 
	C234.369568,317.515411 219.762222,322.322876 203.524277,320.955444 
	C179.360672,318.920532 161.507645,306.695526 151.578690,284.820587 
	C141.069183,261.666656 144.354324,239.043030 160.398529,219.467255 
	C173.124451,203.940170 190.267181,196.755600 210.848557,197.449631 
	C226.475693,197.976593 239.682312,203.697876 250.611572,214.103653 
	C266.026154,228.779892 271.901367,247.318710 269.278442,268.407379 
	C268.728882,272.826019 267.221893,277.125549 265.971130,281.822845 
M196.983826,311.746277 
	C209.339523,313.232147 221.434113,313.297241 232.778671,306.847198 
	C239.456009,303.050720 245.345520,298.570679 250.075516,292.431458 
	C258.955750,280.905457 263.503296,268.183655 261.443085,253.557022 
	C259.939758,242.883911 256.141632,233.284241 249.084000,224.790390 
	C242.403000,216.749817 234.209778,210.802551 224.557449,208.095535 
	C206.793152,203.113480 189.633667,205.159134 174.766525,217.220428 
	C163.282181,226.537369 155.923630,238.402008 154.600037,253.380219 
	C153.440445,266.502472 156.192627,278.562347 163.976898,289.641052 
	C172.061035,301.146515 182.639954,308.333527 196.983826,311.746277 
z"/>
<path fill="#1C1D1E" opacity="1.000000" stroke="none" 
	d="
M154.431152,187.383148 
	C154.334381,179.499771 154.334381,172.062485 154.334381,164.086884 
	C157.474915,164.086884 159.932922,164.237305 162.365082,164.050903 
	C165.829788,163.785370 167.367920,165.157410 166.911057,168.653778 
	C166.519974,171.646683 167.791702,172.785416 170.851349,172.788971 
	C174.025864,172.792664 175.079605,171.389557 174.706497,168.520248 
	C174.229492,164.851776 176.085495,163.997696 179.377411,164.014023 
	C182.304504,164.028549 183.851196,164.857880 183.498322,167.977615 
	C183.139282,171.151840 183.928757,172.895020 187.745026,172.820648 
	C191.583771,172.745850 192.188705,170.855820 191.926178,167.755280 
	C191.844269,166.787872 192.078583,165.793686 192.169754,164.794159 
	C192.705902,164.555954 193.138474,164.215347 193.592453,164.183868 
	C203.877686,163.470978 203.878113,163.477341 203.878113,173.729401 
	C203.878128,178.520142 203.878128,183.310867 203.878128,188.467438 
	C199.852158,188.467438 196.143158,188.467438 192.048065,188.467438 
	C192.048065,185.895111 192.048065,183.460739 192.048065,180.589066 
	C189.161041,180.589066 186.646484,180.589066 183.789185,180.589066 
	C183.594482,183.142792 183.398529,185.712982 183.185471,188.507385 
	C180.363678,188.507385 177.815140,188.507385 175.330780,188.507385 
	C173.753052,179.918594 173.753052,179.918594 167.257599,180.538940 
	C167.146515,181.718002 167.012573,182.973648 166.914017,184.232086 
	C166.812820,185.524475 166.746185,186.819580 166.598038,189.164001 
	C162.406174,188.700455 158.467041,188.264847 154.431152,187.383148 
z"/>
<path fill="#1B1C1D" opacity="1.000000" stroke="none" 
	d="
M240.716614,165.492249 
	C241.253601,167.939484 241.015091,170.575989 242.218643,171.847900 
	C243.211441,172.897064 246.001205,172.714691 247.810150,172.290771 
	C248.528671,172.122391 249.237122,169.781311 249.105850,168.517090 
	C248.717834,164.780579 250.453415,163.788269 253.763397,164.063431 
	C255.583374,164.214722 257.539185,163.724976 259.218658,164.233948 
	C260.391205,164.589294 262.001740,166.119064 262.039825,167.173950 
	C262.291351,174.139633 262.169800,181.118790 262.169800,188.462357 
	C257.746460,188.462357 253.707687,188.462357 249.895004,188.462357 
	C247.622864,185.814026 252.217209,179.845276 244.951721,180.082047 
	C238.318817,180.298218 242.184235,185.593979 240.297195,188.488220 
	C238.280701,188.488220 236.042526,188.488220 233.306244,188.488220 
	C233.137878,185.921234 232.969986,183.361374 232.781708,180.490677 
	C230.357086,180.490677 228.106735,180.490677 225.365875,180.490677 
	C225.175858,182.949097 224.977798,185.511612 224.750809,188.448303 
	C220.700928,188.448303 216.796082,188.448303 212.149689,188.448303 
	C212.149689,181.047821 212.085907,173.637375 212.253265,166.232132 
	C212.269119,165.530075 213.647324,164.457962 214.545181,164.264755 
	C216.141907,163.921143 217.867035,164.235428 219.517258,164.067001 
	C223.350998,163.675720 225.727997,164.687988 225.056564,169.172592 
	C224.603668,172.197495 226.342911,172.821289 228.939255,172.754761 
	C231.402542,172.691681 232.968018,172.275146 233.100143,169.209061 
	C233.347809,163.461945 234.542953,162.916092 240.716614,165.492249 
z"/>
<path fill="#1C1D1E" opacity="1.000000" stroke="none" 
	d="
M289.067322,118.806061 
	C302.420959,118.860046 315.438843,117.306511 329.211151,122.688171 
	C308.717194,128.662567 289.600250,128.485092 270.470123,123.171501 
	C270.406647,122.578232 270.343201,121.984955 270.279724,121.391685 
	C276.378815,120.533844 282.477875,119.675995 289.067322,118.806061 
z"/>
<path fill="#202122" opacity="1.000000" stroke="none" 
	d="
M328.320984,105.957458 
	C322.837616,107.377823 317.349548,109.262360 311.851105,109.292969 
	C299.244324,109.363174 286.630127,108.579666 274.025818,107.994942 
	C272.520386,107.925102 271.057465,106.938431 269.645355,105.877586 
	C289.213684,101.010330 308.739349,100.440018 328.320984,105.957458 
z"/>
<path fill="#292A2B" opacity="1.000000" stroke="none" 
	d="
M297.686584,300.465881 
	C296.961945,298.191559 296.369843,296.096863 296.291046,293.983032 
	C296.273529,293.512573 298.422424,292.307800 298.952484,292.593567 
	C300.514618,293.435760 302.834625,294.785858 302.918732,296.064697 
	C303.103973,298.881317 301.402802,300.997070 297.686584,300.465881 
z"/>
<path fill="#212222" opacity="1.000000" stroke="none" 
	d="
M156.004364,102.938805 
	C160.265915,103.763672 164.093338,104.528931 168.336578,105.377319 
	C160.364349,111.226906 125.142487,111.537285 115.438454,105.677414 
	C129.121323,101.792145 142.237076,101.054039 156.004364,102.938805 
z"/>
<path fill="#1F2021" opacity="1.000000" stroke="none" 
	d="
M116.254509,188.552292 
	C112.817123,187.800858 112.236671,185.499817 113.370842,183.255417 
	C114.023788,181.963303 116.443115,180.438446 117.534775,180.770294 
	C118.990845,181.212921 120.607704,183.214096 120.945457,184.803055 
	C121.600128,187.882965 119.196663,188.581039 116.254509,188.552292 
z"/>
<path fill="#1F2021" opacity="1.000000" stroke="none" 
	d="
M117.772881,300.483582 
	C114.665474,300.232147 112.381142,299.059113 113.129929,295.928741 
	C113.438896,294.637085 115.292122,292.996002 116.587555,292.856506 
	C117.947884,292.709991 120.804123,294.459930 120.712357,294.880676 
	C120.293297,296.801910 119.068138,298.547363 117.772881,300.483582 
z"/>
<path fill="#F7F7F7" opacity="1.000000" stroke="none" 
	d="
M196.562500,311.654541 
	C182.639954,308.333527 172.061035,301.146515 163.976898,289.641052 
	C156.192627,278.562347 153.440445,266.502472 154.600037,253.380219 
	C155.923630,238.402008 163.282181,226.537369 174.766525,217.220428 
	C189.633667,205.159134 206.793152,203.113480 224.557449,208.095535 
	C234.209778,210.802551 242.403000,216.749817 249.084000,224.790390 
	C256.141632,233.284241 259.939758,242.883911 261.443085,253.557022 
	C263.503296,268.183655 258.955750,280.905457 250.075516,292.431458 
	C245.345520,298.570679 239.456009,303.050720 232.778671,306.847198 
	C221.434113,313.297241 209.339523,313.232147 196.562500,311.654541 
M253.198456,264.282471 
	C254.318207,254.207428 252.532410,244.469299 247.277191,236.007446 
	C238.722076,222.232193 226.153458,214.494934 209.566345,213.556824 
	C193.250900,212.634079 175.014679,223.263962 167.801819,237.887390 
	C162.964966,247.693680 162.407074,257.599823 163.772934,268.347748 
	C166.813049,292.270325 196.189331,309.702698 218.280121,303.520538 
	C238.460999,297.872925 251.105576,281.383820 253.198456,264.282471 
z"/>
<path fill="#171819" opacity="1.000000" stroke="none" 
	d="
M253.168961,264.747498 
	C251.105576,281.383820 238.460999,297.872925 218.280121,303.520538 
	C196.189331,309.702698 166.813049,292.270325 163.772934,268.347748 
	C162.407074,257.599823 162.964966,247.693680 167.801819,237.887390 
	C175.014679,223.263962 193.250900,212.634079 209.566345,213.556824 
	C226.153458,214.494934 238.722076,222.232193 247.277191,236.007446 
	C252.532410,244.469299 254.318207,254.207428 253.168961,264.747498 
M187.223251,277.699066 
	C187.291031,279.858521 186.839951,282.223450 187.588394,284.113342 
	C188.203003,285.665314 190.214706,287.686432 191.655838,287.726013 
	C202.632446,288.027191 213.621063,287.876221 224.605835,287.904358 
	C227.563339,287.911926 228.817032,286.352356 228.875763,283.577240 
	C228.910965,281.913544 229.033188,280.236633 228.880676,278.587402 
	C228.607941,275.638336 229.314194,273.596344 232.422729,272.398346 
	C236.051193,270.999969 237.680664,268.100098 237.236130,264.062805 
	C236.982193,261.756744 237.248581,259.395935 237.034546,257.082550 
	C235.706680,242.729919 227.324692,231.538834 211.839050,230.389404 
	C199.588638,229.480087 189.309845,232.143814 182.249939,245.373032 
	C178.701935,252.021454 178.807739,258.779236 179.122940,265.681335 
	C179.213120,267.656616 181.158386,269.642334 182.499527,271.439301 
	C183.922150,273.345490 185.637985,275.032776 187.223251,277.699066 
z"/>
<path fill="#F7F7F8" opacity="1.000000" stroke="none" 
	d="
M187.224518,277.257355 
	C185.637985,275.032776 183.922150,273.345490 182.499527,271.439301 
	C181.158386,269.642334 179.213120,267.656616 179.122940,265.681335 
	C178.807739,258.779236 178.701935,252.021454 182.249939,245.373032 
	C189.309845,232.143814 199.588638,229.480087 211.839050,230.389404 
	C227.324692,231.538834 235.706680,242.729919 237.034546,257.082550 
	C237.248581,259.395935 236.982193,261.756744 237.236130,264.062805 
	C237.680664,268.100098 236.051193,270.999969 232.422729,272.398346 
	C229.314194,273.596344 228.607941,275.638336 228.880676,278.587402 
	C229.033188,280.236633 228.910965,281.913544 228.875763,283.577240 
	C228.817032,286.352356 227.563339,287.911926 224.605835,287.904358 
	C213.621063,287.876221 202.632446,288.027191 191.655838,287.726013 
	C190.214706,287.686432 188.203003,285.665314 187.588394,284.113342 
	C186.839951,282.223450 187.291031,279.858521 187.224518,277.257355 
M197.561371,240.783981 
	C189.785019,244.880783 185.273651,254.548233 187.383011,263.101166 
	C187.687881,264.337341 188.946259,265.786591 190.123016,266.280579 
	C194.773911,268.233032 196.786102,271.465576 196.045654,276.461426 
	C195.593002,279.515594 197.357819,280.053772 199.943542,280.041687 
	C202.500214,280.029694 204.133255,279.555389 203.917480,276.468384 
	C203.726135,273.731201 203.877350,270.970093 203.877350,268.418915 
	C207.111313,268.418915 209.505249,268.418915 211.851974,268.418915 
	C212.806915,280.548767 212.806915,280.548767 220.204208,279.491699 
	C220.317810,278.123657 220.653107,276.648529 220.518600,275.217621 
	C220.139679,271.186829 221.037384,268.123993 225.320923,266.594910 
	C226.699310,266.102844 228.633102,264.632751 228.724228,263.484039 
	C229.272797,256.569153 228.684708,249.638519 223.450760,244.447708 
	C216.154083,237.211151 207.313339,237.923706 197.561371,240.783981 
z"/>
<path fill="#1C1D1E" opacity="1.000000" stroke="none" 
	d="
M197.941742,240.662720 
	C207.313339,237.923706 216.154083,237.211151 223.450760,244.447708 
	C228.684708,249.638519 229.272797,256.569153 228.724228,263.484039 
	C228.633102,264.632751 226.699310,266.102844 225.320923,266.594910 
	C221.037384,268.123993 220.139679,271.186829 220.518600,275.217621 
	C220.653107,276.648529 220.317810,278.123657 220.204208,279.491699 
	C212.806915,280.548767 212.806915,280.548767 211.851974,268.418915 
	C209.505249,268.418915 207.111313,268.418915 203.877350,268.418915 
	C203.877350,270.970093 203.726135,273.731201 203.917480,276.468384 
	C204.133255,279.555389 202.500214,280.029694 199.943542,280.041687 
	C197.357819,280.053772 195.593002,279.515594 196.045654,276.461426 
	C196.786102,271.465576 194.773911,268.233032 190.123016,266.280579 
	C188.946259,265.786591 187.687881,264.337341 187.383011,263.101166 
	C185.273651,254.548233 189.785019,244.880783 197.941742,240.662720 
M212.043945,251.648148 
	C212.043945,254.080811 212.043945,256.513489 212.043945,259.018646 
	C214.989655,259.018646 217.534576,259.018646 220.232361,259.018646 
	C220.232361,256.194977 220.232361,253.640823 220.232361,250.871170 
	C217.496506,250.871170 215.044876,250.871170 212.043945,251.648148 
M196.620224,250.892944 
	C196.339142,253.558853 196.058060,256.224762 195.766312,258.991882 
	C198.845245,258.991882 201.223221,258.991882 203.689270,258.991882 
	C203.689270,256.175720 203.689270,253.625259 203.689270,250.789124 
	C201.481888,250.789124 199.531464,250.789124 196.620224,250.892944 
z"/>
<path fill="#F2F2F2" opacity="1.000000" stroke="none" 
	d="
M212.318604,251.259659 
	C215.044876,250.871170 217.496506,250.871170 220.232361,250.871170 
	C220.232361,253.640823 220.232361,256.194977 220.232361,259.018646 
	C217.534576,259.018646 214.989655,259.018646 212.043945,259.018646 
	C212.043945,256.513489 212.043945,254.080811 212.318604,251.259659 
z"/>
<path fill="#FDFDFD" opacity="1.000000" stroke="none" 
	d="
M197.100647,250.841034 
	C199.531464,250.789124 201.481888,250.789124 203.689270,250.789124 
	C203.689270,253.625259 203.689270,256.175720 203.689270,258.991882 
	C201.223221,258.991882 198.845245,258.991882 195.766312,258.991882 
	C196.058060,256.224762 196.339142,253.558853 197.100647,250.841034 
z"/>
</svg>